<?xml version="1.0" standalone="no"?>
<svg xmlns="http://www.w3.org/2000/svg" viewBox="0 0 108.985 36" width="108.985" height="36"><g fill="#E5BE68" color="#E5BE68" transform="translate(0 4) scale(0.3111112)"><svg width="90.0" height="90.0" x="0.0" y="0.0" viewBox="0 0 90 90"><title></title><path data-name="Compound Path" d="M31.72,29.46V41.33H19.85V29.46H31.72m2.1-2.1H17.75V43.42H33.82V27.36Z"></path><path data-name="Compound Path" d="M50.93,29.46V41.33H39.07V29.46H50.93m2.1-2.1H37V43.42H53V27.36Z"></path><path data-name="Compound Path" d="M50.93,48.67V60.54H39.07V48.67H50.93m2.1-2.1H37V62.64H53V46.58Z"></path><path data-name="Compound Path" d="M70.15,48.67V60.54H58.28V48.67H70.15m2.1-2.1H56.18V62.64H72.25V46.58Z"></path></svg></g><path fill="#ffffff" fill-rule="nonzero" d="M10.54 14.11L10.54 17.09L5.45 17.09Q2.57 17.09 1.28 15.97Q0 14.86 0 12.34L0 12.34L0 0L3.34 0L3.34 12.34Q3.34 13.34 3.79 13.73Q4.25 14.11 5.45 14.11L5.45 14.11L10.54 14.11ZM23.23 10.97L23.23 10.97L15.24 10.97Q15.24 12.84 15.83 13.70Q16.42 14.57 18.19 14.57L18.19 14.57Q19.34 14.57 19.90 13.84Q20.45 13.10 20.45 12.43L20.45 12.43L23.26 12.43Q23.26 15 21.88 16.20Q20.50 17.40 18.23 17.40Q15.96 17.40 14.71 16.75L14.71 16.75Q12.14 15.43 12.14 9.74L12.14 9.74Q12.14 6.36 13.61 4.79Q15.07 3.22 18.07 3.22L18.07 3.22Q23.28 3.22 23.28 9L23.28 9Q23.28 9.62 23.23 10.97ZM15.31 8.83L15.31 8.83L20.45 8.83Q20.45 7.25 19.85 6.53Q19.25 5.81 18.01 5.81Q16.78 5.81 16.04 6.54Q15.31 7.27 15.31 8.83ZM32.81 3.38L36.10 3.38L31.51 17.09L29.06 17.09L24.46 3.38L27.74 3.38L30.29 12.31L32.81 3.38ZM44.66 3.38L47.95 3.38L42.74 18.62Q42.38 19.66 41.81 20.23L41.81 20.23Q40.85 21.19 39.12 21.19L39.12 21.19L37.66 21.19L37.66 18.38L38.62 18.38Q39.29 18.38 39.61 18.16Q39.94 17.93 40.18 17.26L40.18 17.26L40.42 16.58L36.29 3.38L39.58 3.38L42.02 12.91L44.66 3.38ZM60.43 7.90L60.43 17.09L57.31 17.09L57.31 8.33Q57.31 7.15 56.83 6.72Q56.35 6.29 55.49 6.29L55.49 6.29L52.68 7.46L52.68 17.09L49.56 17.09L49.56 3.38L51.89 3.38L52.61 5.02L56.45 3.24Q58.06 3.24 59.24 4.43Q60.43 5.62 60.43 7.90L60.43 7.90ZM72.98 3.29L72.98 17.09L70.90 17.09L69.94 15.43L66.60 17.23Q63.82 17.23 62.86 15.22L62.86 15.22Q62.38 14.23 62.20 13.09Q62.02 11.95 62.02 10.72Q62.02 9.48 62.04 8.89Q62.06 8.30 62.16 7.52Q62.26 6.74 62.44 6.22Q62.62 5.69 62.95 5.12Q63.29 4.56 63.77 4.22L63.77 4.22Q64.85 3.48 66.58 3.48L66.58 3.48L69.86 3.48L72.98 3.29ZM67.49 13.94L69.86 12.72L69.86 6.29L67.49 6.29Q66.17 6.29 65.65 7.30Q65.14 8.30 65.14 10.31Q65.14 12.31 65.63 13.13Q66.12 13.94 67.49 13.94L67.49 13.94Z" transform="translate(36, 9.456)"></path></svg>